<?xml version="1.0" standalone="no"?>
<!DOCTYPE svg PUBLIC "-//W3C//DTD SVG 20010904//EN"
 "http://www.w3.org/TR/2001/REC-SVG-20010904/DTD/svg10.dtd">
<svg version="1.0" xmlns="http://www.w3.org/2000/svg"
 width="260.000000pt" height="280.000000pt" viewBox="0 0 260.000000 280.000000"
 preserveAspectRatio="xMidYMid meet">
<metadata>
Created by potrace 1.16, written by Peter Selinger 2001-2019
</metadata>
<g transform="translate(0.000000,280.000000) scale(0.100000,-0.100000)"
fill="#61DAFB" stroke="none">
<path d="M1060 2115 c-136 -38 -251 -125 -310 -237 -30 -55 -35 -74 -38 -153
-3 -86 -2 -92 27 -137 32 -51 70 -69 96 -48 23 19 19 27 -36 80 l-51 50 4 67
c7 131 93 244 235 310 64 30 92 37 163 41 143 8 196 -30 188 -133 -3 -30 -3
-55 -2 -55 2 0 24 10 49 22 41 20 45 25 45 59 0 47 -34 97 -85 123 -52 27
-205 33 -285 11z"/>
<path d="M1145 2019 c-16 -4 -47 -7 -67 -8 -42 -1 -59 -18 -35 -36 10 -7 17
-20 17 -29 0 -23 -86 -367 -111 -444 -22 -67 -59 -102 -105 -102 -12 0 -25 -7
-28 -16 -4 -9 -5 -17 -4 -18 2 -1 91 1 198 4 172 4 201 8 241 26 60 28 125 87
152 138 29 56 29 145 1 182 -28 39 -36 39 -63 -2 -18 -25 -25 -51 -27 -94 -3
-81 -42 -152 -103 -188 -39 -23 -58 -27 -123 -27 -42 0 -79 3 -83 6 -3 4 3 22
14 40 17 30 46 122 81 257 10 40 13 42 47 42 22 0 41 7 49 18 20 26 18 27 -31
24 -25 -2 -45 -2 -45 -1 0 2 14 55 30 118 17 63 29 115 28 116 -2 1 -16 -2
-33 -6z"/>
<path d="M1446 1915 c-153 -62 -261 -177 -306 -324 -11 -35 -20 -83 -20 -107
0 -39 3 -44 23 -44 12 0 36 9 53 19 26 16 32 27 37 72 15 128 125 282 241 339
84 41 141 48 199 22 59 -26 78 -57 85 -137 7 -91 25 -83 40 18 6 45 15 93 18
107 5 25 4 26 -84 43 -127 24 -214 22 -286 -8z"/>
<path d="M1513 1462 c-44 -7 -26 -31 25 -34 l47 -3 -2 -47 c-2 -81 -19 -114
-65 -133 -50 -20 -145 -23 -179 -5 -35 18 -69 51 -86 83 -13 26 -17 28 -56 22
-55 -9 -62 -17 -44 -51 21 -41 65 -80 112 -100 51 -21 164 -21 224 0 53 19 51
19 51 1 0 -37 -46 -133 -80 -167 -53 -54 -95 -53 -155 3 -45 42 -70 47 -88 17
-33 -51 66 -116 157 -103 143 19 227 120 286 347 28 108 49 148 77 148 7 0 13
6 13 13 0 10 -25 13 -107 13 -60 0 -118 -2 -130 -4z"/>
</g>
</svg>
